<svg width="781" height="170" viewBox="0 0 781 170" fill="none" xmlns="http://www.w3.org/2000/svg">
<path d="M52.6518 31.5157C88.1578 7.10674 114.499 0.390066 157.666 0.014939C202.123 -0.371397 229.38 6.64599 266.152 31.5157C291.04 48.3479 319.961 87.0877 319.961 87.0877C319.961 87.0877 291.819 128.216 266.152 145.037C229.55 169.024 157.666 170 157.666 170C157.666 170 87.9971 168.521 52.6518 145.037C27.3483 128.225 0 87.0877 0 87.0877C0 87.0877 28.1512 48.3589 52.6518 31.5157Z" fill="#C4C4C4"/>
<path d="M52.6518 31.5157C88.1578 7.10674 114.499 0.390066 157.666 0.014939C202.123 -0.371397 229.38 6.64599 266.152 31.5157C291.04 48.3479 319.961 87.0877 319.961 87.0877C319.961 87.0877 291.819 128.216 266.152 145.037C229.55 169.024 157.666 170 157.666 170C157.666 170 87.9971 168.521 52.6518 145.037C27.3483 128.225 0 87.0877 0 87.0877C0 87.0877 28.1512 48.3589 52.6518 31.5157Z" fill="#C4C4C4"/>
<ellipse rx="81.2149" ry="77.4458" transform="matrix(-0.00388897 -0.999992 0.999994 -0.0034853 160.748 84.8502)" fill="#686868"/>
<path d="M163.162 103.059L163.06 101.735C166.152 101.295 168.971 100.07 171.316 98.2694L172.226 99.2551C172.712 99.7819 173.55 99.7978 174.055 99.2907L175.693 97.645C176.198 97.1371 176.161 96.3161 175.612 95.8531L174.585 94.9856C176.363 92.643 177.544 89.8495 177.918 86.809L179.269 86.8761C179.992 86.9126 180.595 86.3428 180.586 85.6331L180.556 83.3308C180.546 82.621 179.928 82.0657 179.206 82.1177L177.857 82.2159C177.403 79.1839 176.149 76.4177 174.309 74.1166L175.313 73.2262C175.85 72.7503 175.865 71.9287 175.347 71.4331L173.666 69.8238C173.147 69.3274 172.31 69.363 171.839 69.9005L170.955 70.9064C168.563 69.1598 165.712 67.9982 162.61 67.6269L162.677 66.3018C162.713 65.5931 162.131 65.0005 161.408 65.0086L159.059 65.035C158.335 65.0431 157.77 65.6486 157.824 66.3563L157.926 67.6795C154.835 68.1196 152.015 69.3449 149.671 71.1455L148.761 70.1597C148.275 69.633 147.437 69.617 146.932 70.1241L145.293 71.7707C144.788 72.2786 144.825 73.0995 145.374 73.5625L146.402 74.43C144.624 76.7726 143.443 79.5661 143.069 82.6074L141.717 82.5388C140.995 82.5023 140.391 83.0721 140.4 83.7818L140.431 86.0841C140.44 86.7939 141.058 87.3491 141.78 87.2972L143.13 87.199C143.583 90.231 144.837 92.9971 146.677 95.2991L145.673 96.1894C145.136 96.6654 145.121 97.4869 145.639 97.9825L147.321 99.5918C147.84 100.088 148.677 100.053 149.148 99.5151L150.032 98.5092C152.424 100.256 155.275 101.417 158.376 101.789L158.309 103.114C158.273 103.823 158.855 104.415 159.579 104.407L161.927 104.381C162.651 104.372 163.216 103.766 163.162 103.059ZM172.863 86.5558C172.569 88.4672 171.84 90.2304 170.753 91.7501L166.922 88.5152C167.34 87.8391 167.652 87.0981 167.83 86.3039L172.863 86.5558ZM172.811 82.5818L167.786 82.9466C167.587 82.1575 167.254 81.4229 166.82 80.7563L170.564 77.4365C171.691 78.9312 172.466 80.6775 172.811 82.5818ZM167.66 74.6588L164.367 78.4105C163.677 77.9999 162.92 77.6931 162.111 77.516L162.36 72.5819C164.31 72.873 166.109 73.5903 167.66 74.6588ZM158.307 72.6274L158.686 77.5545C157.882 77.7489 157.133 78.0734 156.454 78.4986L153.062 74.8228C154.585 73.7198 156.365 72.9622 158.307 72.6274ZM148.123 82.8591C148.417 80.9477 149.146 79.1844 150.234 77.6648L154.065 80.8988C153.647 81.575 153.335 82.3168 153.156 83.1102L148.123 82.8591ZM157.983 84.7356C157.965 83.3769 159.075 82.2623 160.461 82.2467C161.846 82.2312 162.985 83.3205 163.003 84.6792C163.021 86.038 161.911 87.1526 160.526 87.1681C159.14 87.1837 158.001 86.0944 157.983 84.7356ZM148.176 86.8331L153.2 86.4683C153.4 87.2574 153.732 87.992 154.167 88.6585L150.422 91.9776C149.295 90.4829 148.52 88.7373 148.176 86.8331ZM153.326 94.756L156.62 91.0051C157.31 91.4158 158.066 91.7226 158.876 91.8988L158.627 96.833C156.676 96.5419 154.877 95.8246 153.326 94.756ZM162.3 91.8604C163.104 91.666 163.853 91.3415 164.532 90.9155L167.923 94.5921C166.4 95.6951 164.62 96.4527 162.679 96.7875L162.3 91.8604Z" fill="#BEB13A"/>
<path d="M513.691 31.5157C549.197 7.10674 575.538 0.390066 618.705 0.014939C663.162 -0.371397 690.419 6.64599 727.191 31.5157C752.079 48.3479 781 87.0877 781 87.0877C781 87.0877 752.858 128.216 727.191 145.037C690.589 169.024 618.705 170 618.705 170C618.705 170 549.036 168.521 513.691 145.037C488.387 128.225 461.039 87.0877 461.039 87.0877C461.039 87.0877 489.19 48.3589 513.691 31.5157Z" fill="#C4C4C4"/>
<path d="M513.691 31.5157C549.197 7.10674 575.538 0.390066 618.705 0.014939C663.162 -0.371397 690.419 6.64599 727.191 31.5157C752.079 48.3479 781 87.0877 781 87.0877C781 87.0877 752.858 128.216 727.191 145.037C690.589 169.024 618.705 170 618.705 170C618.705 170 549.036 168.521 513.691 145.037C488.387 128.225 461.039 87.0877 461.039 87.0877C461.039 87.0877 489.19 48.3589 513.691 31.5157Z" fill="#C4C4C4"/>
<ellipse rx="81.2149" ry="77.4458" transform="matrix(-0.00388897 -0.999992 0.999994 -0.0034853 621.787 84.8502)" fill="#686868"/>
<path d="M624.201 103.059L624.099 101.735C627.191 101.295 630.01 100.07 632.355 98.2694L633.265 99.2551C633.751 99.7819 634.589 99.7978 635.094 99.2907L636.732 97.645C637.237 97.1371 637.2 96.3161 636.651 95.8531L635.624 94.9856C637.402 92.643 638.583 89.8495 638.957 86.809L640.308 86.8761C641.031 86.9126 641.634 86.3428 641.625 85.6331L641.594 83.3308C641.585 82.621 640.967 82.0657 640.245 82.1177L638.896 82.2159C638.442 79.1839 637.188 76.4177 635.348 74.1166L636.352 73.2262C636.889 72.7503 636.904 71.9287 636.386 71.4331L634.705 69.8238C634.186 69.3274 633.349 69.363 632.878 69.9005L631.994 70.9064C629.602 69.1598 626.751 67.9982 623.649 67.6269L623.716 66.3018C623.752 65.5931 623.17 65.0005 622.446 65.0086L620.098 65.035C619.374 65.0431 618.809 65.6486 618.863 66.3563L618.965 67.6795C615.873 68.1196 613.054 69.3449 610.71 71.1455L609.8 70.1597C609.314 69.633 608.476 69.617 607.971 70.1241L606.332 71.7707C605.827 72.2786 605.864 73.0995 606.413 73.5625L607.441 74.43C605.663 76.7726 604.482 79.5661 604.108 82.6074L602.756 82.5388C602.033 82.5023 601.43 83.0721 601.439 83.7818L601.47 86.0841C601.479 86.7939 602.097 87.3491 602.819 87.2972L604.169 87.199C604.622 90.231 605.876 92.9971 607.716 95.2991L606.712 96.1894C606.175 96.6654 606.16 97.4869 606.678 97.9825L608.36 99.5918C608.879 100.088 609.716 100.053 610.187 99.5151L611.071 98.5092C613.463 100.256 616.313 101.417 619.415 101.789L619.348 103.114C619.312 103.823 619.894 104.415 620.618 104.407L622.966 104.381C623.69 104.372 624.255 103.766 624.201 103.059ZM633.902 86.5558C633.608 88.4672 632.879 90.2304 631.792 91.7501L627.961 88.5152C628.379 87.8391 628.691 87.0981 628.869 86.3039L633.902 86.5558ZM633.85 82.5818L628.825 82.9466C628.625 82.1575 628.293 81.4229 627.859 80.7563L631.603 77.4365C632.73 78.9312 633.505 80.6775 633.85 82.5818ZM628.699 74.6588L625.406 78.4105C624.716 77.9999 623.959 77.6931 623.15 77.516L623.399 72.5819C625.349 72.873 627.148 73.5903 628.699 74.6588ZM619.346 72.6274L619.725 77.5545C618.921 77.7489 618.172 78.0734 617.493 78.4986L614.101 74.8228C615.624 73.7198 617.404 72.9622 619.346 72.6274ZM609.162 82.8591C609.456 80.9477 610.185 79.1844 611.273 77.6648L615.104 80.8988C614.686 81.575 614.374 82.3168 614.195 83.1102L609.162 82.8591ZM619.022 84.7356C619.004 83.3769 620.114 82.2623 621.5 82.2467C622.885 82.2312 624.024 83.3205 624.042 84.6792C624.06 86.038 622.95 87.1526 621.565 87.1681C620.179 87.1837 619.04 86.0944 619.022 84.7356ZM609.214 86.8331L614.239 86.4683C614.439 87.2574 614.771 87.992 615.206 88.6585L611.461 91.9776C610.334 90.4829 609.559 88.7373 609.214 86.8331ZM614.365 94.756L617.659 91.0051C618.349 91.4158 619.105 91.7226 619.915 91.8988L619.666 96.833C617.715 96.5419 615.916 95.8246 614.365 94.756ZM623.339 91.8604C624.143 91.666 624.892 91.3415 625.571 90.9155L628.962 94.5921C627.439 95.6951 625.659 96.4527 623.718 96.7875L623.339 91.8604Z" fill="#BEB13A"/>
</svg>
